<svg class="logo logo--dark" width="171" height="63" viewBox="0 0 171 63" fill="none" xmlns="http://www.w3.org/2000/svg">
<path d="M164.734 51C162.709 51 161.179 50.504 160.146 49.512C159.154 48.52 158.658 46.908 158.658 44.676V29.3H164.548V46.04H170.5V51H164.734ZM154.814 29.982V25.518C155.723 25.518 156.467 25.456 157.046 25.332C157.625 25.208 158.079 24.9393 158.41 24.526C158.782 24.1127 159.051 23.472 159.216 22.604C159.381 21.736 159.464 20.5373 159.464 19.008H164.548V25.518H170.376V29.982H154.814Z" fill="#212725"/>
<path d="M128.308 51V16.094H134.818V31.036H134.942C134.983 30.912 135.128 30.5813 135.376 30.044C135.624 29.4653 136.058 28.8247 136.678 28.122C137.298 27.4193 138.125 26.82 139.158 26.324C140.233 25.7867 141.576 25.518 143.188 25.518C144.965 25.518 146.433 25.828 147.59 26.448C148.747 27.068 149.657 27.874 150.318 28.866C151.021 29.858 151.517 30.9533 151.806 32.152C152.137 33.3093 152.343 34.4667 152.426 35.624C152.509 36.74 152.55 37.7527 152.55 38.662V51H146.412V38.6C146.412 37.236 146.267 35.996 145.978 34.88C145.73 33.764 145.213 32.8547 144.428 32.152C143.643 31.4493 142.444 31.098 140.832 31.098C139.22 31.098 137.98 31.4907 137.112 32.276C136.244 33.02 135.645 33.9707 135.314 35.128C134.983 36.2853 134.818 37.5253 134.818 38.848V51H128.308Z" fill="#212725"/>
<path d="M106.88 62.346V56.394H118.04V46.474H117.916C117.875 46.5567 117.689 46.8667 117.358 47.404C117.028 47.9413 116.532 48.5407 115.87 49.202C115.25 49.8633 114.403 50.442 113.328 50.938C112.295 51.3927 110.993 51.62 109.422 51.62C106.942 51.62 104.917 51.0827 103.346 50.008C101.776 48.892 100.618 47.3627 99.8743 45.42C99.1716 43.4773 98.8203 41.2247 98.8203 38.662C98.8203 35.9753 99.1923 33.6607 99.9363 31.718C100.68 29.734 101.838 28.2047 103.408 27.13C104.979 26.0553 106.984 25.518 109.422 25.518C111.076 25.518 112.44 25.7867 113.514 26.324C114.589 26.82 115.436 27.4193 116.056 28.122C116.676 28.8247 117.11 29.4653 117.358 30.044C117.648 30.6227 117.813 30.974 117.854 31.098H117.978V25.518H124.55V53.17C124.55 55.4433 124.24 57.2413 123.62 58.564C123.042 59.928 122.153 60.8993 120.954 61.478C119.756 62.0567 118.206 62.346 116.304 62.346H106.88ZM111.406 46.288C112.977 46.288 114.238 45.9573 115.188 45.296C116.139 44.6347 116.842 43.746 117.296 42.63C117.751 41.4727 117.978 40.15 117.978 38.662C117.978 37.2153 117.751 35.934 117.296 34.818C116.883 33.6607 116.201 32.772 115.25 32.152C114.341 31.4907 113.101 31.16 111.53 31.16C109.836 31.16 108.492 31.5113 107.5 32.214C106.55 32.9167 105.888 33.8467 105.516 35.004C105.144 36.1613 104.958 37.3807 104.958 38.662C104.958 39.9433 105.124 41.1833 105.454 42.382C105.826 43.5393 106.488 44.49 107.438 45.234C108.389 45.9367 109.712 46.288 111.406 46.288Z" fill="#212725"/>
<path d="M89.3827 51V25.518H95.7067V51H89.3827ZM92.5447 22.232C91.1807 22.232 90.2507 21.8807 89.7547 21.178C89.3 20.4753 89.0727 19.6693 89.0727 18.76C89.0727 17.8507 89.3 17.0653 89.7547 16.404C90.2507 15.7013 91.1807 15.35 92.5447 15.35C93.95 15.35 94.8594 15.7013 95.2727 16.404C95.7274 17.0653 95.9547 17.8507 95.9547 18.76C95.9547 19.6693 95.7274 20.4753 95.2727 21.178C94.8594 21.8807 93.95 22.232 92.5447 22.232Z" fill="#212725"/>
<path d="M78.3907 51V16.094H84.5908V51H78.3907Z" fill="#212725"/>
<path d="M67.3412 51V25.518H73.6652V51H67.3412ZM70.5032 22.232C69.1392 22.232 68.2092 21.8807 67.7132 21.178C67.2585 20.4753 67.0312 19.6693 67.0312 18.76C67.0312 17.8507 67.2585 17.0653 67.7132 16.404C68.2092 15.7013 69.1392 15.35 70.5032 15.35C71.9085 15.35 72.8179 15.7013 73.2312 16.404C73.6859 17.0653 73.9132 17.8507 73.9132 18.76C73.9132 19.6693 73.6859 20.4753 73.2312 21.178C72.8179 21.8807 71.9085 22.232 70.5032 22.232Z" fill="#212725"/>
<path d="M32.4512 51L26.4992 26.572V25.456H32.6992L36.9152 45.73H37.0392L42.4952 25.456H47.9512L53.5932 45.73H53.7172L57.9332 25.456H64.0712V26.572L58.0572 51H49.2532L45.2852 36.43H45.1612L41.3792 51H32.4512Z" fill="#212725"/>
<path d="M17.236 17.21V51H10.912V17.21H17.236ZM0.619995 21.55V16.094H27.59V21.55H0.619995Z" fill="#212725"/>
<g clip-path="url(#clip0_1_35)">
<path d="M98.657 6.247C98.767 5.917 99.233 5.917 99.343 6.247L99.988 8.184C100.13 8.6098 100.369 8.99668 100.687 9.31398C101.004 9.63127 101.391 9.87026 101.817 10.012L103.753 10.657C104.083 10.767 104.083 11.233 103.753 11.343L101.816 11.988C101.39 12.13 101.003 12.3692 100.686 12.6866C100.369 13.0041 100.13 13.3911 99.988 13.817L99.343 15.753C99.3193 15.8253 99.2733 15.8882 99.2118 15.9328C99.1502 15.9774 99.076 16.0014 99 16.0014C98.9239 16.0014 98.8498 15.9774 98.7882 15.9328C98.7266 15.8882 98.6807 15.8253 98.657 15.753L98.012 13.816C97.8701 13.3903 97.6311 13.0035 97.3138 12.6862C96.9965 12.3689 96.6097 12.1299 96.184 11.988L94.247 11.343C94.1747 11.3193 94.1118 11.2734 94.0672 11.2118C94.0226 11.1502 93.9986 11.0761 93.9986 11C93.9986 10.9239 94.0226 10.8498 94.0672 10.7882C94.1118 10.7266 94.1747 10.6807 94.247 10.657L96.184 10.012C96.6097 9.87013 96.9965 9.63108 97.3138 9.31379C97.6311 8.9965 97.8701 8.60969 98.012 8.184L98.657 6.247ZM94.794 1.148C94.8083 1.10469 94.836 1.06701 94.8729 1.0403C94.9099 1.01359 94.9544 0.999211 95 0.999211C95.0456 0.999211 95.0901 1.01359 95.1271 1.0403C95.164 1.06701 95.1917 1.10469 95.206 1.148L95.593 2.31C95.766 2.828 96.172 3.234 96.69 3.407L97.852 3.794C97.8953 3.80834 97.933 3.83596 97.9597 3.87294C97.9864 3.90992 98.0008 3.95438 98.0008 4C98.0008 4.04562 97.9864 4.09007 97.9597 4.12705C97.933 4.16404 97.8953 4.19166 97.852 4.206L96.69 4.593C96.4344 4.67784 96.2021 4.82119 96.0116 5.01164C95.8212 5.20209 95.6778 5.43437 95.593 5.69L95.206 6.852C95.1917 6.8953 95.164 6.93299 95.1271 6.9597C95.0901 6.98641 95.0456 7.00079 95 7.00079C94.9544 7.00079 94.9099 6.98641 94.8729 6.9597C94.836 6.93299 94.8083 6.8953 94.794 6.852L94.407 5.69C94.3222 5.43437 94.1788 5.20209 93.9884 5.01164C93.7979 4.82119 93.5656 4.67784 93.31 4.593L92.148 4.206C92.1047 4.19166 92.067 4.16404 92.0403 4.12705C92.0136 4.09007 91.9992 4.04562 91.9992 4C91.9992 3.95438 92.0136 3.90992 92.0403 3.87294C92.067 3.83596 92.1047 3.80834 92.148 3.794L93.31 3.407C93.5656 3.32216 93.7979 3.17881 93.9884 2.98836C94.1788 2.79791 94.3222 2.56562 94.407 2.31L94.794 1.148ZM101.863 0.098998C101.873 0.0705243 101.891 0.0458339 101.916 0.0283596C101.94 0.0108853 101.97 0.00149536 102 0.00149536C102.03 0.00149536 102.06 0.0108853 102.084 0.0283596C102.109 0.0458339 102.127 0.0705243 102.137 0.098998L102.395 0.872998C102.51 1.219 102.781 1.49 103.127 1.605L103.901 1.863C103.929 1.87287 103.954 1.89137 103.972 1.91592C103.989 1.94047 103.998 1.96986 103.998 2C103.998 2.03013 103.989 2.05952 103.972 2.08407C103.954 2.10863 103.929 2.12713 103.901 2.137L103.127 2.395C102.957 2.452 102.802 2.54779 102.675 2.67481C102.548 2.80184 102.452 2.95664 102.395 3.127L102.137 3.901C102.127 3.92947 102.109 3.95416 102.084 3.97164C102.06 3.98911 102.03 3.9985 102 3.9985C101.97 3.9985 101.94 3.98911 101.916 3.97164C101.891 3.95416 101.873 3.92947 101.863 3.901L101.605 3.127C101.548 2.95664 101.452 2.80184 101.325 2.67481C101.198 2.54779 101.043 2.452 100.873 2.395L100.1 2.137C100.072 2.12713 100.047 2.10863 100.029 2.08407C100.012 2.05952 100.002 2.03013 100.002 2C100.002 1.96986 100.012 1.94047 100.029 1.91592C100.047 1.89137 100.072 1.87287 100.1 1.863L100.874 1.605C101.22 1.49 101.491 1.219 101.606 0.872998L101.863 0.098998Z" fill="#2BE6A3"/>
</g>
<defs>
<clipPath id="clip0_1_35">
<rect width="16" height="16" fill="white" transform="translate(91)"/>
</clipPath>
</defs>
</svg>
